<svg width="858" height="168" viewBox="0 0 858 168" fill="none" xmlns="http://www.w3.org/2000/svg">
<path d="M309.339 0C312.088 0.141934 320.839 1.92028 324.096 2.5127C318.09 15.7448 286.164 80.3492 287.595 89.5693C287.768 90.6842 288.182 91.1388 289.067 91.7871C295.746 92.8454 311.617 75.5133 314.406 70.0918C317.118 64.8204 319.678 58.7047 322.618 53.3574C326.291 46.7397 330.27 40.2862 334.544 34.0166C338.699 35.8416 343.548 39.5724 348.388 41.8584C344.429 49.2863 323.267 79.3349 327.212 86.7178C336.151 91.5844 364.209 43.971 369.074 36.1211C372.647 38.4037 377.615 40.9688 381.436 43.1279C374.832 55.9213 358.982 79.7879 359.754 93.1094C360.06 93.031 360.366 92.9484 360.67 92.8623C368.413 90.6565 381.273 75.8024 385.048 69.2051C392.029 56.0928 401.37 39.7264 417.544 35.6162C439.556 30.0213 441.676 49.5909 433.457 63.6963C429.881 62.7636 423.223 60.6377 419.961 59.0713C422.139 56.3985 425.462 52.0222 423.413 48.6299C415.986 46.0446 403.849 62.9593 401.194 68.7012C393.593 85.1431 395.771 102.627 418.986 94.3525C427.631 91.1772 444.802 78.3987 448.126 69.8301C452.946 57.3838 458.86 43.474 464.415 31.083L450.188 31.0635C450.158 26.5899 450.48 22.1206 451.148 17.6943C458.346 17.7632 465.548 17.74 472.745 17.625C474.25 13.8081 476.858 9.11093 478.659 5.06445C482.63 6.35134 488.454 8.80528 492.566 10.3271L490.729 17.5381C495.373 17.7196 500.436 17.7212 505.11 17.8018L505.182 31.0742L482.952 31.0537C480.469 34.7952 476.658 43.1179 474.692 47.373C470.448 56.9462 465.367 66.1844 462.538 76.2764C459.568 86.88 462.657 99.3204 475.414 87.8848C482.656 81.3921 488.339 73.8938 494.12 66.2129C497.679 68.7107 501.291 71.4418 504.801 74.0215C495.643 85.6059 487.595 99.7079 472.864 105.383C459.289 110.612 451.883 104.234 447.209 92.3906C432.974 103.924 414.462 114.088 395.382 106.202C389.617 103.819 386.652 98.0269 384.227 92.8242C372.958 104.684 353.481 118.873 346.73 94.0088C337.408 101.896 315 115.418 310.407 95.6172C307.416 98.8958 304.093 100.931 300.317 103.284C299.804 103.552 299.288 103.816 298.769 104.073C287.399 109.722 278.531 107.854 272.58 96.457C263.089 103.636 247.907 113.821 237.376 99.5908C236.705 98.6838 235.922 96.5909 235.453 95.4863C226.909 103 213.789 107.542 202.938 102C190.059 110.415 171.385 112.285 169.781 92.5723C159.148 101.703 136.002 116.15 129.443 94.8994C125.123 80.9022 142.086 58.2133 149.531 47.0645L142.084 45.8975C141.309 47.8061 140.129 50.3847 139.083 52.2295C129.275 69.5313 117.133 93.9202 96.6523 100.592C91.8254 102.164 82.698 102.578 78.3672 100.421C63.7677 108.334 42.7301 110.908 41.4199 88.8877C36.1247 98.9275 30.9062 109.006 25.7637 119.12C22.0708 126.477 18.2827 134.624 14.2969 141.764C9.73134 139.382 4.84077 137.468 0 134.918C12.4575 110.173 23.6341 84.2886 35.8438 59.3604C41.0943 48.6409 45.8305 37.1664 51.3789 26.6201C56.6846 28.3233 61.9468 29.9718 67.1631 31.9229C65.7825 35.8409 62.6712 42.1609 60.8799 46.1377C61.796 45.5816 62.7172 45.0329 63.6436 44.4922C71.5393 39.8961 91.5259 32.1073 98.1406 43.2051C103.353 51.9504 96.8974 69.208 92.9854 77.4648C91.5835 80.4232 88.2464 85.1443 87.3975 88.2197L87.9551 88.6729C100.497 89.8096 116.157 64.0032 121.648 54.7451C123.068 52.3518 125.994 47.6979 126.637 45.0977C126.173 44.2692 125.911 44.0042 125.26 43.2988C125.25 40.2143 126.681 33.6983 127.267 30.3926C133.375 31.4243 139.318 31.7543 145.407 32.5205C154.743 33.6954 163.917 34.6991 173.273 35.6279C173.104 39.3577 172.12 45.2733 171.603 49.124L165.605 48.5986C156.31 63.8173 144.685 72.4011 143.301 91.7822C157.597 89.1244 170.518 71.2511 177.204 59.6748C178.452 57.515 179.843 55.4383 181.322 53.417C184.689 48.7717 188.646 44.5548 193.1 40.8662C198.371 36.5524 205.057 32.7856 212.218 33.4219C216.263 33.7435 219.994 35.6625 222.534 38.7285C231.915 49.9223 225.107 70.1292 218.819 81.1797C217.8 82.9713 215.363 86.6769 215.167 88.5615L215.776 89.0566C223.71 89.4859 234.47 78.1375 238.324 72.2061C241.816 66.8326 244.312 61.1396 248.211 55.5762C251.721 50.5603 255.928 46.0373 260.713 42.1338C269.582 34.8204 281.597 27.2632 291.18 38.3701L302.114 15.4307C304.435 10.644 307.503 4.80884 309.339 0ZM52.9053 92.6689C54.9538 97.0346 58.4135 98.1646 63.1572 97.8232C60.9897 96.6183 55.2603 93.7767 52.9053 92.6689ZM183.683 81.3789C182.594 87.0971 183.432 96.4798 191.915 94.2246C192.368 91.4649 186.542 85.2181 185.051 82.5361C184.759 82.0121 184.239 81.6353 183.683 81.3789ZM280.981 46.9072C271.373 50.2515 265.308 57.5849 259.799 65.6465C256.816 70.0118 245.019 88.2536 252.113 92.5049C265.129 91.3319 287.778 52.8965 280.981 46.9072ZM85.1797 49.9678C72.5465 52.852 61.243 59.8353 52.6377 69.2129C54.8641 74.5743 56.6 77.3856 61.0098 81.3799C64.5261 83.9523 66.5413 84.8578 70.6924 86.3818C77.829 75.333 83.1831 63.2932 86.5684 50.6787L86.3525 49.9902L85.1797 49.9678ZM212.601 62.2939C213.817 57.3021 216.657 46.2638 207.75 47.3809C196.022 53.2979 198.649 70.918 201.452 81.3037L202.047 81.8203C202.834 81.4503 203.013 81.395 203.568 80.7402C207.27 75.0505 210.988 68.9125 212.601 62.2939Z" fill="#0E6BFF"/>
<path d="M552.623 26.5818C557.828 28.5693 563.061 29.7624 568.417 31.9763C566.399 36.9916 564.278 41.3637 561.856 46.1736C577.853 36.8726 604.718 28.5176 600.694 57.7117C599.176 68.7431 593.878 78.1818 588.61 87.8523C588.708 88.1879 588.787 88.4598 588.849 88.6677L589.712 88.9617C596.467 88.6507 607.745 78.3472 610.893 73.2683C614.588 67.2985 616.802 61.8194 621.25 55.6189C625.513 49.5937 630.723 44.2515 636.689 39.7859C645.445 33.1788 656.113 28.3778 664.421 38.7791C665.598 36.5951 668.285 33.0247 669.816 30.8738C674.128 31.7498 680.36 32.5145 684.835 33.1843C678.403 41.6886 661.481 77.3336 660.596 88.5759C660.498 89.8058 661.358 90.658 662.261 91.3943C666.253 92.375 671.892 87.2337 674.725 84.7976C684.795 76.1283 689.447 67.6926 695.086 56.2351C698.919 48.456 702.699 40.6519 706.422 32.823C711.065 34.5545 715.708 36.586 720.276 38.5173C718.758 40.6412 715.483 46.7738 714.425 49.2244C711.703 55.5421 694.657 84.9781 698.646 89.7341C699.336 90.162 700.213 90.5297 701.022 90.4255C714.961 88.6322 726.682 67.7132 733.41 58.489C736.292 54.5654 739.452 50.841 742.869 47.3445C747.884 42.2699 756.073 35.4793 763.664 35.4197C769.06 35.3773 771.644 37.8098 775.119 41.1052C776.597 38.6581 778.196 34.9289 779.838 32.0457C784.848 33.3518 789.585 34.5963 794.666 35.6375C785.743 54.8473 776.146 73.8401 767.431 93.1863C776.952 91.5383 784.977 84.5218 790.165 76.7585C791.975 74.0506 794.064 67.8171 796.317 64.1228C800.571 57.1924 805.794 50.8647 811.836 45.321C817.904 39.7362 826.009 34.2755 834.756 34.4705C840.784 34.6051 845.653 37.7296 845.118 44.0916C843.967 57.7085 835.345 68.2808 825.354 77.24C816.404 84.7995 814.027 84.9087 803.896 87.8855C803.448 91.6985 808.056 93.9501 811.518 93.3181C826.456 90.5926 837.779 79.3683 846.915 68.3552C850.447 70.8495 853.997 73.308 857.379 75.991C851.355 86.5878 842.352 95.3165 831.423 101.168C817.604 108.598 799.748 112.441 790.643 96.2986C783.104 103.041 770.034 106.762 760.074 107.996C759.038 110.915 755.006 119.004 753.382 122.275C748.358 132.25 744.595 141.957 738.266 151.31C723.977 172.434 689.73 177.616 696.772 142.351C700.3 124.675 716.315 111.836 731.56 102.526C727.51 99.8023 726.168 97.8401 723.721 93.8582C717.891 98.9267 711.663 103.649 704.076 105.921C694.683 108.732 686.128 105.268 683.246 95.8542C680.807 98.1797 678.151 100.275 675.305 102.111C662.508 110.312 653.948 109.068 645.467 96.5789C633.578 106.238 616.302 113.922 608.325 95.2839C598.57 102.246 590.633 103.002 579.062 100.668C564.429 108.602 544.913 110.568 542.606 89.3572C532.784 105.481 524.675 125.21 515.548 141.765C510.741 139.437 505.947 137.526 501.233 134.938C513.424 109.799 525.379 84.5516 537.096 59.2009C541.788 49.2521 547.488 35.9244 552.623 26.5818ZM743.369 110.724C732.786 115.646 725.407 120.691 718.303 130.114C714.974 134.527 706.157 149.497 711.646 154.255C716.912 153.824 720.139 151.457 723.419 147.472C731.949 137.118 738.323 123.533 744.184 111.619L744.108 110.885L743.369 110.724ZM554.283 92.655C556.018 97.079 559.626 98.3795 564.371 97.7947C560.861 95.8266 558.196 95.0083 554.283 92.655ZM654.005 46.9324C641.213 51.2741 632.728 64.7171 626.743 75.8113C624.468 80.032 621.272 88.3412 624.653 92.4802C638.251 91.7168 660.6 53.2155 654.005 46.9324ZM763.434 49.0134C752.412 52.9839 745.281 64.8846 740.363 74.5886C738.677 77.9162 735.667 88.2905 737.929 91.4216C738.539 91.4564 738.903 91.5442 739.43 91.2556C749.478 85.0402 768.608 62.2028 765.899 50.281C765.032 49.0972 765.111 49.1322 763.434 49.0134ZM586.295 49.9568C574.844 52.6043 561.272 60.3053 553.969 69.0154C555.881 74.7923 557.236 76.6607 561.729 80.9412C565.393 83.8367 567.429 84.732 571.873 86.3669C577.942 77.0183 585.126 61.5749 587.809 50.7156L587.547 50.0583L586.295 49.9568ZM829.979 48.531C819.33 55.4995 814.563 61.2435 809.291 72.7058C809.442 72.8285 809.721 73.0973 809.88 73.1423C820.344 66.6694 825.487 60.0963 830.546 49.2371L830.374 48.699L829.979 48.531Z" fill="#0E6BFF"/>
<path d="M718.798 8.8297C720.6 8.66718 722.787 8.59959 724.495 9.17721C727.027 10.0425 729.103 11.8368 730.276 14.1726C733.498 20.7255 729.674 25.9888 723.517 28.7598C718.258 29.5283 714.257 27.9331 712.15 22.9357C711.012 20.259 711.008 17.2557 712.146 14.5785C713.558 11.3417 715.589 10.0788 718.798 8.8297Z" fill="#0E6BFF"/>
</svg>
